<?xml version="1.0" encoding="UTF-8"?><svg id="Capa_2" xmlns="http://www.w3.org/2000/svg" viewBox="0 0 212.2 26.04"><defs><style>.cls-1{fill:#bfc2bf;}</style></defs><g id="Capa_1-2"><path class="cls-1" d="M0,.43h6.43c1.61,0,2.9.22,3.86.67.96.45,1.66,1.06,2.09,1.85.43.79.65,1.69.65,2.69,0,1.08-.22,2.02-.67,2.82-.45.8-1.13,1.43-2.06,1.91l3.56,7.12h-3.94l-2.99-6.31c-.13,0-.25,0-.38.01-.13,0-.25.01-.38.01h-2.58v6.29H0V.43ZM9.4,5.76c0-.8-.23-1.4-.69-1.81-.46-.41-1.3-.61-2.51-.61h-2.61v4.97h2.75c1.18,0,1.98-.22,2.41-.66.43-.44.65-1.07.65-1.9Z"/><path class="cls-1" d="M26.56,13.72h-6.41l-1.29,3.78h-3.78L21.21.43h4.45l6.07,17.07h-3.9l-1.27-3.78ZM23.33,3.73l-2.27,6.96h4.57l-2.3-6.96Z"/><path class="cls-1" d="M33.76.43h4.42l4.35,12.6L46.95.43h4.35v17.07h-3.47V6.1l-3.99,11.4h-2.77l-3.92-11.31v11.31h-3.39V.43Z"/><path class="cls-1" d="M64.81,13.72h-6.41l-1.29,3.78h-3.78L59.46.43h4.45l6.07,17.07h-3.9l-1.27-3.78ZM61.58,3.73l-2.27,6.96h4.57l-2.3-6.96Z"/><path class="cls-1" d="M72.01.43h6.48c2.69,0,4.77.7,6.22,2.1,1.45,1.4,2.18,3.51,2.18,6.31s-.76,4.99-2.28,6.46c-1.52,1.47-3.65,2.2-6.4,2.2h-6.19V.43ZM83.03,8.89c0-1.71-.35-3.01-1.06-3.92-.71-.91-1.84-1.36-3.38-1.36h-2.87v10.71h2.63c1.61,0,2.79-.47,3.55-1.41s1.14-2.28,1.14-4.02Z"/><path class="cls-1" d="M98.64,13.72h-6.41l-1.29,3.78h-3.78L93.29.43h4.45l6.07,17.07h-3.9l-1.27-3.78ZM95.41,3.73l-2.27,6.96h4.57l-2.3-6.96Z"/><path class="cls-1" d="M108.95.43h11.83v3.04h-8.13v3.8h7.65v3.04h-7.65v4.16h8.23v3.04h-11.93V.43Z"/><path class="cls-1" d="M133.17,12.74c0-.51-.15-.95-.47-1.31s-.94-.63-1.88-.79l-2.25-.43c-1.82-.33-3.18-.89-4.1-1.66-.92-.77-1.38-1.91-1.38-3.41,0-1.12.28-2.06.85-2.82.57-.77,1.36-1.34,2.38-1.73,1.02-.39,2.21-.59,3.56-.59,1.48,0,2.7.21,3.65.62.95.41,1.67.98,2.18,1.71s.82,1.56.94,2.5l-3.63.45c-.21-.8-.54-1.38-.99-1.76-.46-.37-1.19-.56-2.21-.56-1.08,0-1.86.18-2.32.55-.46.37-.69.84-.69,1.41s.17,1.01.52,1.31c.35.3.96.54,1.84.72l2.34.45c1.9.37,3.28.95,4.14,1.76.86.8,1.29,1.94,1.29,3.41,0,1.61-.58,2.9-1.75,3.88s-2.88,1.47-5.16,1.47-3.91-.46-5.16-1.39c-1.26-.92-1.97-2.35-2.13-4.28h3.73c.14.92.51,1.6,1.11,2.03.6.43,1.47.65,2.62.65s1.87-.21,2.31-.62c.44-.41.66-.94.66-1.58Z"/><path class="cls-1" d="M143.4,3.71h-5.21V.43h14.22v3.27h-5.24v13.79h-3.78V3.71Z"/><path class="cls-1" d="M154.42,10.5V.43h3.78v10.23c0,1.35.25,2.36.75,3.02s1.32.99,2.45.99,1.98-.33,2.46-.99.72-1.67.72-3.02V.43h3.78v10.11c0,2.5-.6,4.36-1.81,5.57-1.2,1.21-2.94,1.82-5.2,1.82s-3.98-.6-5.16-1.81c-1.18-1.2-1.77-3.08-1.77-5.63Z"/><path class="cls-1" d="M171.54.43h6.48c2.69,0,4.77.7,6.22,2.1s2.18,3.51,2.18,6.31-.76,4.99-2.28,6.46c-1.52,1.47-3.65,2.2-6.4,2.2h-6.19V.43ZM182.56,8.89c0-1.71-.35-3.01-1.06-3.92-.71-.91-1.84-1.36-3.38-1.36h-2.87v10.71h2.63c1.61,0,2.79-.47,3.55-1.41.76-.94,1.14-2.28,1.14-4.02Z"/><path class="cls-1" d="M189.21.43h3.75v17.07h-3.75V.43Z"/><path class="cls-1" d="M195.76,9.01c0-1.91.34-3.54,1.02-4.89.68-1.35,1.64-2.37,2.88-3.07s2.7-1.05,4.37-1.05,3.12.35,4.35,1.04c1.23.69,2.17,1.7,2.83,3.02.66,1.32.99,2.93.99,4.83s-.34,3.54-1,4.89c-.67,1.35-1.62,2.37-2.85,3.08-1.23.71-2.69,1.06-4.4,1.06s-3.12-.35-4.35-1.04c-1.23-.69-2.18-1.7-2.85-3.02-.67-1.32-1-2.94-1-4.85ZM199.68,8.97c0,1.79.36,3.18,1.08,4.2.72,1.01,1.79,1.52,3.23,1.52s2.49-.51,3.22-1.52c.72-1.01,1.09-2.41,1.09-4.2s-.36-3.18-1.09-4.2c-.73-1.01-1.8-1.52-3.22-1.52s-2.51.51-3.23,1.52c-.72,1.01-1.08,2.41-1.08,4.2Z"/><rect class="cls-1" y="22.53" width="103.8" height="3.51"/></g></svg>