<?xml version="1.0" encoding="UTF-8"?>
<svg id="Capa_2" xmlns="http://www.w3.org/2000/svg" version="1.1" viewBox="0 0 212.2 26">
  <!-- Generator: Adobe Illustrator 30.1.0, SVG Export Plug-In . SVG Version: 2.1.1 Build 136)  -->
  <defs>
    <style>
      .st0 {
        fill: #d1d1d1;
      }
    </style>
  </defs>
  <g id="Capa_1-2">
    <path class="st0" d="M0,.4h6.4c1.6,0,2.9.2,3.9.7,1,.4,1.7,1.1,2.1,1.9.4.8.6,1.7.6,2.7s-.2,2-.7,2.8c-.4.8-1.1,1.4-2.1,1.9l3.6,7.1h-3.9l-3-6.3c-.1,0-.2,0-.4,0-.1,0-.2,0-.4,0h-2.6v6.3H0V.4ZM9.4,5.8c0-.8-.2-1.4-.7-1.8-.5-.4-1.3-.6-2.5-.6h-2.6v5h2.8c1.2,0,2-.2,2.4-.7.4-.4.6-1.1.6-1.9h0Z"/>
    <path class="st0" d="M26.6,13.7h-6.4l-1.3,3.8h-3.8L21.2.4h4.5l6.1,17.1h-3.9l-1.3-3.8ZM23.3,3.7l-2.3,7h4.6s-2.3-7-2.3-7Z"/>
    <path class="st0" d="M33.8.4h4.4l4.3,12.6L47,.4h4.3v17.1h-3.5V6.1l-4,11.4h-2.8l-3.9-11.3v11.3h-3.4s0-17.1,0-17.1Z"/>
    <path class="st0" d="M64.8,13.7h-6.4l-1.3,3.8h-3.8L59.5.4h4.5l6.1,17.1h-3.9s-1.3-3.8-1.3-3.8ZM61.6,3.7l-2.3,7h4.6s-2.3-7-2.3-7Z"/>
    <path class="st0" d="M72,.4h6.5c2.7,0,4.8.7,6.2,2.1,1.4,1.4,2.2,3.5,2.2,6.3s-.8,5-2.3,6.5-3.7,2.2-6.4,2.2h-6.2V.4h0ZM83,8.9c0-1.7-.3-3-1.1-3.9s-1.8-1.4-3.4-1.4h-2.9v10.7h2.6c1.6,0,2.8-.5,3.6-1.4s1.1-2.3,1.1-4h0Z"/>
    <path class="st0" d="M98.6,13.7h-6.4l-1.3,3.8h-3.8L93.3.4h4.4l6.1,17.1h-3.9l-1.3-3.8ZM95.4,3.7l-2.3,7h4.6s-2.3-7-2.3-7Z"/>
    <path class="st0" d="M108.9.4h11.8v3h-8.1v3.8h7.7v3h-7.7v4.2h8.2v3h-11.9s0-17.1,0-17.1Z"/>
    <path class="st0" d="M133.2,12.7c0-.5-.1-.9-.5-1.3s-.9-.6-1.9-.8l-2.2-.4c-1.8-.3-3.2-.9-4.1-1.7-.9-.8-1.4-1.9-1.4-3.4s.3-2.1.8-2.8c.6-.8,1.4-1.3,2.4-1.7S128.5,0,129.9,0s2.7.2,3.6.6c.9.4,1.7,1,2.2,1.7s.8,1.6.9,2.5l-3.6.4c-.2-.8-.5-1.4-1-1.8-.5-.4-1.2-.6-2.2-.6s-1.9.2-2.3.5-.7.8-.7,1.4.2,1,.5,1.3c.3.3,1,.5,1.8.7l2.3.4c1.9.4,3.3.9,4.1,1.8.9.8,1.3,1.9,1.3,3.4s-.6,2.9-1.8,3.9-2.9,1.5-5.2,1.5-3.9-.5-5.2-1.4c-1.3-.9-2-2.4-2.1-4.3h3.7c.1.9.5,1.6,1.1,2,.6.4,1.5.6,2.6.6s1.9-.2,2.3-.6.7-.9.7-1.6h0Z"/>
    <path class="st0" d="M143.4,3.7h-5.2V.4h14.2v3.3h-5.2v13.8h-3.8V3.7h0Z"/>
    <path class="st0" d="M154.4,10.5V.4h3.8v10.2c0,1.4.2,2.4.8,3s1.3,1,2.4,1,2-.3,2.5-1,.7-1.7.7-3V.4h3.8v10.1c0,2.5-.6,4.4-1.8,5.6-1.2,1.2-2.9,1.8-5.2,1.8s-4-.6-5.2-1.8c-1.2-1.2-1.8-3.1-1.8-5.6h0Z"/>
    <path class="st0" d="M171.5.4h6.5c2.7,0,4.8.7,6.2,2.1,1.4,1.4,2.2,3.5,2.2,6.3s-.8,5-2.3,6.5-3.6,2.2-6.4,2.2h-6.2V.4h0ZM182.6,8.9c0-1.7-.4-3-1.1-3.9-.7-.9-1.8-1.4-3.4-1.4h-2.9v10.7h2.6c1.6,0,2.8-.5,3.6-1.4.8-.9,1.1-2.3,1.1-4h0Z"/>
    <path class="st0" d="M189.2.4h3.8v17.1h-3.8V.4Z"/>
    <path class="st0" d="M195.8,9c0-1.9.3-3.5,1-4.9.7-1.3,1.6-2.4,2.9-3.1S202.4,0,204,0s3.1.3,4.4,1c1.2.7,2.2,1.7,2.8,3,.7,1.3,1,2.9,1,4.8s-.3,3.5-1,4.9c-.7,1.4-1.6,2.4-2.9,3.1-1.2.7-2.7,1.1-4.4,1.1s-3.1-.4-4.4-1c-1.2-.7-2.2-1.7-2.9-3-.7-1.3-1-2.9-1-4.9h0ZM199.7,9c0,1.8.4,3.2,1.1,4.2.7,1,1.8,1.5,3.2,1.5s2.5-.5,3.2-1.5c.7-1,1.1-2.4,1.1-4.2s-.4-3.2-1.1-4.2c-.7-1-1.8-1.5-3.2-1.5s-2.5.5-3.2,1.5c-.7,1-1.1,2.4-1.1,4.2Z"/>
    <rect class="st0" y="22.5" width="103.8" height="3.5"/>
  </g>
</svg>